<svg version="1.1" xmlns="http://www.w3.org/2000/svg" viewBox="0 0 2020 1520" width="2020" height="1520" class="excalidraw-svg"><!-- svg-source:excalidraw --><metadata></metadata><defs><style class="style-fonts">
      </style></defs><rect x="0" y="0" width="2020" height="1520" fill="#fdf8f6"></rect><g stroke-linecap="round" transform="translate(10 10) rotate(0 1000 750)"><path d="M32 0 C735.74 -2.15, 1439.66 -2.92, 1968 0 M32 0 C456.88 1.14, 882.09 1.16, 1968 0 M1968 0 C1987.89 1.51, 1998.02 12.46, 2000 32 M1968 0 C1989.17 -1.8, 1999.38 9.85, 2000 32 M2000 32 C2003.3 378.36, 2003.97 724.46, 2000 1468 M2000 32 C2003.12 445.66, 2003.31 859.53, 2000 1468 M2000 1468 C1998.29 1489.33, 1991.06 1500.22, 1968 1500 M2000 1468 C1998.64 1488.89, 1990.65 1498.95, 1968 1500 M1968 1500 C1346.5 1503.69, 724.79 1504.04, 32 1500 M1968 1500 C1287.53 1502.37, 607.2 1502.48, 32 1500 M32 1500 C9.06 1498.2, 0.5 1488.71, 0 1468 M32 1500 C10.97 1499.47, 2.29 1489.51, 0 1468 M0 1468 C-2.84 1068.72, -2.18 669.12, 0 32 M0 1468 C3.29 976.21, 3.65 485.12, 0 32 M0 32 C-0.61 11.16, 9.11 -0.72, 32 0 M0 32 C1.61 11.13, 12.69 1.57, 32 0" stroke="#252525" stroke-width="4" fill="none"></path></g></svg>